<svg width="36" height="36" viewBox="0 0 36 36" fill="none" xmlns="http://www.w3.org/2000/svg">
<path d="M18 13.5C26.901 13.266 26.8995 0.2325 18 0C9.099 0.234 9.10049 13.2675 18 13.5ZM18 1.5C24.9225 1.6815 24.921 11.8185 18 12C11.0775 11.8185 11.079 1.6815 18 1.5ZM33.576 16.569C32.0355 15.2835 30.018 14.751 28.0425 15.1095L21.729 16.2585C20.1195 16.551 18.783 17.5305 18.0015 18.8625C17.22 17.5305 15.882 16.551 14.2725 16.2585L7.959 15.1095C5.988 14.751 3.969 15.282 2.427 16.569C0.886495 17.8545 0.00149536 19.743 0.00149536 21.7515V27.303C0.00149536 30.567 2.3325 33.36 5.544 33.9435L15.72 35.7945C17.2335 36.069 18.768 36.069 20.2815 35.7945L30.459 33.9435C33.6705 33.36 36 30.567 36 27.303V21.7515C36 19.7445 35.1165 17.856 33.576 16.569ZM17.25 34.476C16.8285 34.4475 16.407 34.395 15.987 34.32L5.811 32.469C3.312 32.0145 1.5 29.8425 1.5 27.3045V21.753C1.5 20.1915 2.187 18.723 3.3855 17.7225C4.584 16.719 6.168 16.308 7.689 16.587L14.0025 17.736C15.8835 18.078 17.25 19.7145 17.25 21.627V34.4775V34.476ZM34.5 27.303C34.5 29.841 32.6865 32.013 30.189 32.4675L20.0115 34.3185C19.593 34.395 19.1715 34.446 18.75 34.4745V21.6255C18.75 19.713 20.115 18.0765 21.9975 17.7345L28.311 16.587C29.8425 16.302 31.4145 16.722 32.6145 17.721C33.813 18.7215 34.5 20.19 34.5 21.7515V27.303Z" fill="white"/>
</svg>
