<svg width="28" height="28" viewBox="0 0 28 28" fill="none" xmlns="http://www.w3.org/2000/svg">
<path d="M14 10.5C20.923 10.318 20.9218 0.180833 14 0C7.07699 0.182 7.07816 10.3192 14 10.5ZM14 1.16667C19.3842 1.30783 19.383 9.19217 14 9.33333C8.61583 9.19217 8.61699 1.30783 14 1.16667ZM26.1147 12.887C24.9165 11.8872 23.3473 11.473 21.8108 11.7518L16.9003 12.6455C15.6485 12.873 14.609 13.6348 14.0012 14.6708C13.3933 13.6348 12.3527 12.873 11.1008 12.6455L6.19033 11.7518C4.65733 11.473 3.08699 11.886 1.88766 12.887C0.689493 13.8868 0.00115967 15.3557 0.00115967 16.9178V21.2357C0.00115967 23.7743 1.81416 25.9467 4.31199 26.4005L12.2267 27.8402C13.4038 28.0537 14.5973 28.0537 15.7745 27.8402L23.6903 26.4005C26.1882 25.9467 28 23.7743 28 21.2357V16.9178C28 15.3568 27.3128 13.888 26.1147 12.887ZM13.4167 26.8147C13.0888 26.7925 12.761 26.7517 12.4343 26.6933L4.51966 25.2537C2.57599 24.9002 1.16666 23.2108 1.16666 21.2368V16.919C1.16666 15.7045 1.70099 14.5623 2.63316 13.7842C3.56533 13.0037 4.79733 12.684 5.98033 12.901L10.8908 13.7947C12.3538 14.0607 13.4167 15.3335 13.4167 16.821V26.8158V26.8147ZM26.8333 21.2357C26.8333 23.2097 25.4228 24.899 23.4803 25.2525L15.5645 26.6922C15.239 26.7517 14.9112 26.7913 14.5833 26.8135V16.8198C14.5833 15.3323 15.645 14.0595 17.1092 13.7935L22.0197 12.901C23.2108 12.6793 24.4335 13.006 25.3668 13.783C26.299 14.5612 26.8333 15.7033 26.8333 16.9178V21.2357Z" fill="black" fill-opacity="0.7"/>
</svg>
