<svg width="28" height="28" viewBox="0 0 28 28" fill="none" xmlns="http://www.w3.org/2000/svg">
<path d="M14.0001 10.5C20.9231 10.318 20.9219 0.180833 14.0001 0C7.07705 0.182 7.07822 10.3192 14.0001 10.5ZM14.0001 1.16667C19.3842 1.30783 19.3831 9.19217 14.0001 9.33333C8.61589 9.19217 8.61705 1.30783 14.0001 1.16667ZM26.1147 12.887C24.9166 11.8872 23.3474 11.473 21.8109 11.7518L16.9004 12.6455C15.6486 12.873 14.6091 13.6348 14.0012 14.6708C13.3934 13.6348 12.3527 12.873 11.1009 12.6455L6.19039 11.7518C4.65739 11.473 3.08705 11.886 1.88772 12.887C0.689554 13.8868 0.0012207 15.3557 0.0012207 16.9178V21.2357C0.0012207 23.7743 1.81422 25.9467 4.31205 26.4005L12.2267 27.8402C13.4039 28.0537 14.5974 28.0537 15.7746 27.8402L23.6904 26.4005C26.1882 25.9467 28.0001 23.7743 28.0001 21.2357V16.9178C28.0001 15.3568 27.3129 13.888 26.1147 12.887ZM13.4167 26.8147C13.0889 26.7925 12.7611 26.7517 12.4344 26.6933L4.51972 25.2537C2.57605 24.9002 1.16672 23.2108 1.16672 21.2368V16.919C1.16672 15.7045 1.70105 14.5623 2.63322 13.7842C3.56539 13.0037 4.79739 12.684 5.98039 12.901L10.8909 13.7947C12.3539 14.0607 13.4167 15.3335 13.4167 16.821V26.8158V26.8147ZM26.8334 21.2357C26.8334 23.2097 25.4229 24.899 23.4804 25.2525L15.5646 26.6922C15.2391 26.7517 14.9112 26.7913 14.5834 26.8135V16.8198C14.5834 15.3323 15.6451 14.0595 17.1092 13.7935L22.0197 12.901C23.2109 12.6793 24.4336 13.006 25.3669 13.783C26.2991 14.5612 26.8334 15.7033 26.8334 16.9178V21.2357Z" fill="#1EA2B1"/>
</svg>
