<svg width="28" height="28" viewBox="0 0 28 28" fill="none" xmlns="http://www.w3.org/2000/svg">
<path d="M22.75 28H5.25C2.3555 28 0 25.6445 0 22.75V11.1545C0 9.40798 0.8645 7.78048 2.3135 6.80398L11.0635 0.899481C12.845 -0.305686 15.1527 -0.305686 16.9365 0.899481L25.6853 6.80398C27.1343 7.78165 27.9988 9.40798 27.9988 11.1545V22.75C27.9988 25.6445 25.6445 28 22.75 28ZM14 1.16198C13.2043 1.16198 12.4098 1.39648 11.7168 1.86548L2.96567 7.76881C1.83867 8.52948 1.16667 9.79415 1.16667 11.1533V22.7488C1.16667 25.0005 2.99833 26.8321 5.25 26.8321H22.75C25.0017 26.8321 26.8333 25.0005 26.8333 22.7488V11.1545C26.8333 9.79531 26.1613 8.53065 25.0343 7.76998L16.2843 1.86548C15.5902 1.39765 14.7957 1.16198 14 1.16198Z" fill="#453F3F" fill-opacity="0.92"/>
</svg>
