<svg width="36" height="36" viewBox="0 0 36 36" fill="none" xmlns="http://www.w3.org/2000/svg">
<g clip-path="url(#clip0_3_25)">
<path d="M29.9295 31.569C31.8675 29.454 33 27.1125 33 25.0815C33 18.7875 27.3765 16.245 23.271 14.388C21.579 13.623 19.965 12.888 19.2075 12.0885C19.0845 11.6775 18.9525 11.145 18.861 10.5075C18.9615 10.512 19.0635 10.5195 19.164 10.5195C20.9955 10.5195 22.6905 9.65096 23.766 8.13896C24.0585 7.72796 24.078 7.18346 23.814 6.75296C23.547 6.32096 23.046 6.08846 22.5495 6.16646C22.3605 6.19496 22.1685 6.20996 21.9705 6.20996C19.674 6.20996 17.805 4.34096 17.805 2.04296C17.805 1.84496 17.82 1.65296 17.847 1.46546C17.9235 0.964462 17.6925 0.467962 17.262 0.202462C16.8285 -0.0645378 16.287 -0.0435378 15.8745 0.248962C14.232 1.41746 13.3485 3.31346 13.5135 5.32346C13.692 7.52696 15.1845 9.38096 17.1855 10.14C17.1045 10.9305 16.9605 11.586 16.824 12.06C16.0785 12.87 14.442 13.614 12.7275 14.3895C8.622 16.2465 2.9985 18.789 2.9985 25.083C2.9985 27.114 4.131 29.4555 6.069 31.5705C4.3245 31.8915 2.9985 33.417 2.9985 35.2515C2.9985 35.6655 3.3345 36.0015 3.7485 36.0015C4.1625 36.0015 4.4985 35.6655 4.4985 35.2515C4.4985 34.011 5.508 33.0015 6.7485 33.0015H29.2485C30.489 33.0015 31.4985 34.011 31.4985 35.2515C31.4985 35.6655 31.8345 36.0015 32.2485 36.0015C32.6625 36.0015 32.9985 35.6655 32.9985 35.2515C32.9985 33.417 31.671 31.8915 29.928 31.5705L29.9295 31.569ZM15.009 5.20196C14.9055 3.91496 15.384 2.68946 16.3095 1.82696C16.3065 1.89896 16.305 1.97096 16.305 2.04296C16.305 5.16746 18.846 7.70996 21.9705 7.70996C22.044 7.70996 22.116 7.70996 22.188 7.70546C21.3255 8.63096 20.0865 9.10796 18.813 9.00596C16.8075 8.84396 15.1725 7.20746 15.009 5.20196ZM8.1045 31.5C5.8755 29.4465 4.5 27.006 4.5 25.0815C4.5 19.7565 9.201 17.631 13.347 15.7545C15.2835 14.8785 17.0445 14.082 18 13.0095C18.9555 14.082 20.7165 14.8785 22.653 15.7545C26.8005 17.6295 31.5 19.755 31.5 25.0815C31.5 27.0075 30.1245 29.448 27.8955 31.5H8.1045Z" fill="white"/>
</g>
<defs>
<clipPath id="clip0_3_25">
<rect width="36" height="36" fill="white"/>
</clipPath>
</defs>
</svg>
