<svg width="50" height="50" viewBox="0 0 50 50" fill="none" xmlns="http://www.w3.org/2000/svg">
<g clip-path="url(#clip0_3_5)">
<path d="M49.4167 44.7917C48.3 47.4 44.3688 48.4063 41.1146 47.9542L33.0375 38.5417H28.7521L23.8792 44.6334L21.7125 48.0375H20.5688C19.3729 48.075 18.7521 48.7355 18.7521 50H14.5854C14.5854 46.2292 17.1 44.473 19.3333 44.0021L21.2021 38.1084C15.8354 36.5667 10.3854 31.2063 8.4625 29.1667H0V28.125C0 22.775 4.36042 20.8334 7.29167 20.8334H16.725C17.825 19.9271 20.2875 13.3396 19.7917 7.75838L50 0.0187988C50.0083 2.00422 50.0229 4.58546 49.8083 6.47713L28.125 12.5H48.6979C48.0062 14.8584 47.0583 16.9167 45.9333 18.75H27.1479L42.15 23.5375C39.9729 25.7125 37.525 27.4605 35.0312 28.9521L36.9958 32.8834L47.3687 36.473C48.6917 38.0771 51.1146 41.1042 49.4146 44.7938L49.4167 44.7917Z" fill="#D1AF09"/>
</g>
<defs>
<clipPath id="clip0_3_5">
<rect width="50" height="50" fill="white"/>
</clipPath>
</defs>
</svg>
