<svg width="75" height="90" viewBox="0 0 75 90" fill="none" xmlns="http://www.w3.org/2000/svg">
<path d="M67.3275 78.8846C72.1725 73.5971 75.0037 67.7433 75.0037 62.6658C75.0037 46.9308 60.945 40.5746 50.6813 35.9321C46.4513 34.0196 42.4163 32.1821 40.5225 30.1833C40.215 29.1558 39.885 27.8246 39.6563 26.2308C39.9075 26.2421 40.1625 26.2608 40.4137 26.2608C44.9925 26.2608 49.23 24.0896 51.9188 20.3096C52.65 19.2821 52.6988 17.9208 52.0388 16.8446C51.3713 15.7646 50.1188 15.1833 48.8775 15.3783C48.405 15.4496 47.925 15.4871 47.43 15.4871C41.6888 15.4871 37.0163 10.8146 37.0163 5.06956C37.0163 4.57456 37.0537 4.09456 37.1213 3.62581C37.3125 2.37331 36.735 1.13206 35.6588 0.468314C34.575 -0.199186 33.2213 -0.146686 32.19 0.584564C28.0838 3.50581 25.875 8.24581 26.2875 13.2708C26.7337 18.7796 30.465 23.4146 35.4675 25.3121C35.265 27.2883 34.905 28.9271 34.5638 30.1121C32.7 32.1371 28.6087 33.9971 24.3225 35.9358C14.0587 40.5783 0 46.9346 0 62.6696C0 67.7471 2.83125 73.6008 7.67625 78.8883C3.315 79.6908 0 83.5046 0 88.0908C0 89.1258 0.84 89.9658 1.875 89.9658C2.91 89.9658 3.75 89.1258 3.75 88.0908C3.75 84.9896 6.27375 82.4658 9.375 82.4658H65.625C68.7262 82.4658 71.25 84.9896 71.25 88.0908C71.25 89.1258 72.09 89.9658 73.125 89.9658C74.16 89.9658 75 89.1258 75 88.0908C75 83.5046 71.6812 79.6908 67.3237 78.8883L67.3275 78.8846ZM30.0262 12.9671C29.7675 9.74956 30.9638 6.68581 33.2775 4.52956C33.27 4.70956 33.2663 4.88956 33.2663 5.06956C33.2663 12.8808 39.6188 19.2371 47.43 19.2371C47.6138 19.2371 47.7938 19.2371 47.9738 19.2258C45.8175 21.5396 42.72 22.7321 39.5363 22.4771C34.5225 22.0721 30.435 17.9808 30.0262 12.9671ZM12.765 78.7121C7.1925 73.5783 3.75375 67.4771 3.75375 62.6658C3.75375 49.3533 15.5062 44.0396 25.8712 39.3483C30.7125 37.1583 35.115 35.1671 37.5037 32.4858C39.8925 35.1671 44.295 37.1583 49.1363 39.3483C59.505 44.0358 71.2537 49.3496 71.2537 62.6658C71.2537 67.4808 67.815 73.5821 62.2425 78.7121H12.765Z" fill="#D1AF09"/>
</svg>
