<svg width="36" height="36" viewBox="0 0 36 36" fill="none" xmlns="http://www.w3.org/2000/svg">
<g clip-path="url(#clip0_3_46)">
<path d="M26.25 16.5585C20.874 16.5585 16.5 20.9325 16.5 26.3085C16.5 31.653 20.874 36 26.25 36C31.626 36 36 31.626 36 26.25C36 20.9055 31.626 16.5585 26.25 16.5585ZM26.25 34.5C21.702 34.5 18 30.825 18 26.3085C18 21.759 21.702 18.0585 26.25 18.0585C30.798 18.0585 34.5 21.7335 34.5 26.25C34.5 30.7995 30.798 34.5 26.25 34.5ZM28.281 27.219C28.5735 27.5115 28.5735 27.987 28.281 28.2795C28.134 28.4265 27.942 28.4985 27.75 28.4985C27.558 28.4985 27.366 28.425 27.219 28.2795L25.719 26.7795C25.578 26.6385 25.5 26.448 25.5 26.2485V23.2485C25.5 22.8345 25.836 22.4985 26.25 22.4985C26.664 22.4985 27 22.8345 27 23.2485V25.938L28.281 27.219ZM29.25 3H27V0.75C27 0.336 26.664 0 26.25 0C25.836 0 25.5 0.336 25.5 0.75V3H10.5V0.75C10.5 0.336 10.164 0 9.75 0C9.336 0 9 0.336 9 0.75V3H6.75C3.0285 3 0 6.0285 0 9.75V29.25C0 32.9715 3.0285 36 6.75 36H15.75C16.164 36 16.5 35.664 16.5 35.25C16.5 34.836 16.164 34.5 15.75 34.5H6.75C3.855 34.5 1.5 32.145 1.5 29.25V13.5H34.5V15.75C34.5 16.164 34.836 16.5 35.25 16.5C35.664 16.5 36 16.164 36 15.75V9.75C36 6.0285 32.9715 3 29.25 3ZM1.5 12V9.75C1.5 6.855 3.855 4.5 6.75 4.5H29.25C32.145 4.5 34.5 6.855 34.5 9.75V12H1.5Z" fill="white"/>
</g>
<defs>
<clipPath id="clip0_3_46">
<rect width="36" height="36" fill="white"/>
</clipPath>
</defs>
</svg>
