<svg width="28" height="28" viewBox="0 0 28 28" fill="none" xmlns="http://www.w3.org/2000/svg">
<path d="M22.75 7H16.415L16.065 6.6605C15.652 6.26033 15.1538 6.0095 14.6335 5.89517L18.564 4.00633C18.9933 3.73917 19.25 3.27717 19.25 2.77083C19.25 2.2645 18.9933 1.80133 18.5022 1.50033L15.7022 0.190167C15.4327 0.0641667 15.1445 0 14.8493 0C13.7387 0 12.8333 0.904167 12.8333 2.01483V6.06783C12.5102 6.20783 12.2045 6.40033 11.935 6.6605L11.585 7H5.25C2.3555 7 0 9.3555 0 12.25V23.9167C0 26.1683 1.83167 28 4.08333 28H23.9167C26.1683 28 28 26.1683 28 23.9167V12.25C28 9.3555 25.6445 7 22.75 7ZM22.75 8.16667C24.801 8.16667 26.488 9.69267 26.7738 11.6667H22.8888C21.8237 11.6667 20.8145 11.2583 20.048 10.5175L17.619 8.16667H22.75ZM14 2.01483C14 1.547 14.3803 1.16667 14.8493 1.16667C14.973 1.16667 15.0943 1.1935 15.2087 1.24717L17.9468 2.5235C18.0705 2.6005 18.0845 2.723 18.0845 2.77083C18.0845 2.8315 18.0658 2.9435 18.0052 2.98667L14.0012 4.907V2.01483H14ZM5.25 8.16667H10.3798L7.95083 10.5175C7.1855 11.2583 6.17633 11.6667 5.11 11.6667H1.22617C1.512 9.69267 3.199 8.16667 5.25 8.16667ZM16.3333 26.8333H11.6667V19.8333C11.6667 18.5465 12.7132 17.5 14 17.5C15.2868 17.5 16.3333 18.5465 16.3333 19.8333V26.8333ZM23.9167 26.8333H17.5V19.8333C17.5 17.9037 15.9297 16.3333 14 16.3333C12.0703 16.3333 10.5 17.9037 10.5 19.8333V26.8333H4.08333C2.4745 26.8333 1.16667 25.5243 1.16667 23.9167V12.8333H5.11117C6.482 12.8333 7.77817 12.3083 8.76283 11.3552L12.747 7.49933C13.4517 6.818 14.5518 6.818 15.253 7.49933L19.2372 11.3552C20.2218 12.3083 21.518 12.8333 22.8888 12.8333H26.8333V23.9167C26.8333 25.5243 25.5255 26.8333 23.9167 26.8333ZM8.16667 18.0833C8.16667 18.4053 7.90533 18.6667 7.58333 18.6667H5.25C4.928 18.6667 4.66667 18.4053 4.66667 18.0833C4.66667 17.7613 4.928 17.5 5.25 17.5H7.58333C7.90533 17.5 8.16667 17.7613 8.16667 18.0833ZM8.16667 22.75C8.16667 23.072 7.90533 23.3333 7.58333 23.3333H5.25C4.928 23.3333 4.66667 23.072 4.66667 22.75C4.66667 22.428 4.928 22.1667 5.25 22.1667H7.58333C7.90533 22.1667 8.16667 22.428 8.16667 22.75ZM23.3333 18.0833C23.3333 18.4053 23.072 18.6667 22.75 18.6667H20.4167C20.0947 18.6667 19.8333 18.4053 19.8333 18.0833C19.8333 17.7613 20.0947 17.5 20.4167 17.5H22.75C23.072 17.5 23.3333 17.7613 23.3333 18.0833ZM23.3333 22.75C23.3333 23.072 23.072 23.3333 22.75 23.3333H20.4167C20.0947 23.3333 19.8333 23.072 19.8333 22.75C19.8333 22.428 20.0947 22.1667 20.4167 22.1667H22.75C23.072 22.1667 23.3333 22.428 23.3333 22.75ZM15.1667 11.6667C15.1667 12.3107 14.644 12.8333 14 12.8333C13.356 12.8333 12.8333 12.3107 12.8333 11.6667C12.8333 11.0227 13.356 10.5 14 10.5C14.644 10.5 15.1667 11.0227 15.1667 11.6667Z" fill="black" fill-opacity="0.7"/>
</svg>
