<svg width="36" height="36" viewBox="0 0 36 36" fill="none" xmlns="http://www.w3.org/2000/svg">
<g clip-path="url(#clip0_3_29)">
<path d="M29.25 9H21.105L20.655 8.5635C20.124 8.049 19.4835 7.7265 18.8145 7.5795L23.868 5.151C24.42 4.8075 24.75 4.2135 24.75 3.5625C24.75 2.9115 24.42 2.316 23.7885 1.929L20.1885 0.2445C19.842 0.0825 19.4715 0 19.092 0C17.664 0 16.5 1.1625 16.5 2.5905V7.8015C16.0845 7.9815 15.6915 8.229 15.345 8.5635L14.895 9H6.75C3.0285 9 0 12.0285 0 15.75V30.75C0 33.645 2.355 36 5.25 36H30.75C33.645 36 36 33.645 36 30.75V15.75C36 12.0285 32.9715 9 29.25 9ZM29.25 10.5C31.887 10.5 34.056 12.462 34.4235 15H29.4285C28.059 15 26.7615 14.475 25.776 13.5225L22.653 10.5H29.25ZM18 2.5905C18 1.989 18.489 1.5 19.092 1.5C19.251 1.5 19.407 1.5345 19.554 1.6035L23.0745 3.2445C23.2335 3.3435 23.2515 3.501 23.2515 3.5625C23.2515 3.6405 23.2275 3.7845 23.1495 3.84L18.0015 6.309V2.5905H18ZM6.75 10.5H13.3455L10.2225 13.5225C9.2385 14.475 7.941 15 6.57 15H1.5765C1.944 12.462 4.113 10.5 6.75 10.5ZM21 34.5H15V25.5C15 23.8455 16.3455 22.5 18 22.5C19.6545 22.5 21 23.8455 21 25.5V34.5ZM30.75 34.5H22.5V25.5C22.5 23.019 20.481 21 18 21C15.519 21 13.5 23.019 13.5 25.5V34.5H5.25C3.1815 34.5 1.5 32.817 1.5 30.75V16.5H6.5715C8.334 16.5 10.0005 15.825 11.2665 14.5995L16.389 9.642C17.295 8.766 18.7095 8.766 19.611 9.642L24.7335 14.5995C25.9995 15.825 27.666 16.5 29.4285 16.5H34.5V30.75C34.5 32.817 32.8185 34.5 30.75 34.5ZM10.5 23.25C10.5 23.664 10.164 24 9.75 24H6.75C6.336 24 6 23.664 6 23.25C6 22.836 6.336 22.5 6.75 22.5H9.75C10.164 22.5 10.5 22.836 10.5 23.25ZM10.5 29.25C10.5 29.664 10.164 30 9.75 30H6.75C6.336 30 6 29.664 6 29.25C6 28.836 6.336 28.5 6.75 28.5H9.75C10.164 28.5 10.5 28.836 10.5 29.25ZM30 23.25C30 23.664 29.664 24 29.25 24H26.25C25.836 24 25.5 23.664 25.5 23.25C25.5 22.836 25.836 22.5 26.25 22.5H29.25C29.664 22.5 30 22.836 30 23.25ZM30 29.25C30 29.664 29.664 30 29.25 30H26.25C25.836 30 25.5 29.664 25.5 29.25C25.5 28.836 25.836 28.5 26.25 28.5H29.25C29.664 28.5 30 28.836 30 29.25ZM19.5 15C19.5 15.828 18.828 16.5 18 16.5C17.172 16.5 16.5 15.828 16.5 15C16.5 14.172 17.172 13.5 18 13.5C18.828 13.5 19.5 14.172 19.5 15Z" fill="white"/>
</g>
<defs>
<clipPath id="clip0_3_29">
<rect width="36" height="36" fill="white"/>
</clipPath>
</defs>
</svg>
