<svg width="28" height="28" viewBox="0 0 28 28" fill="none" xmlns="http://www.w3.org/2000/svg">
<path d="M27.9381 12.333C27.7981 11.9515 27.4319 11.6948 27.0259 11.6948H24.1087L23.0729 8.78966C22.9341 8.41513 22.569 8.16428 22.1654 8.16428C21.7618 8.16428 21.3967 8.41747 21.2521 8.80482L20.2221 11.6948H17.3048C16.8977 11.6948 16.5326 11.9515 16.3927 12.3319C16.2539 12.7134 16.3682 13.1463 16.6866 13.4146L18.988 15.2872L18.0747 18.2181C17.951 18.6113 18.0875 19.0418 18.4176 19.2891C18.5879 19.4163 18.7885 19.484 19.0008 19.484C19.1945 19.484 19.3811 19.4268 19.5421 19.3195L22.1747 17.5565L24.8505 19.2996C25.1853 19.519 25.6484 19.5061 25.9761 19.2553C26.3027 19.0044 26.4357 18.5716 26.3039 18.1819L25.3533 15.2826L27.6605 13.4029C27.9684 13.1451 28.0804 12.7146 27.9404 12.3307L27.9381 12.333ZM23.9932 14.887L25.022 18.0232L22.1642 16.1611L19.3356 18.0886L20.3352 14.8824L17.8531 12.8616H21.0433L22.1642 9.71605L23.2852 12.8616H26.4777L23.9932 14.887ZM17.3772 24.8498C13.4882 22.6213 9.33339 18.6008 9.33339 13.9991C9.33339 9.39753 13.4871 5.37928 17.3737 3.15081C18.0339 2.77162 18.3593 2.06458 18.2007 1.34937C18.0432 0.635322 17.4483 0.131291 16.6866 0.0647867C16.6866 0.0647867 16.5606 0.0542861 16.5583 0.0542861C8.93097 -0.545417 2.1423 3.87885 0.436963 10.5888C-0.612832 14.7202 0.243334 18.8423 2.85032 22.1966C5.67544 25.831 10.235 28 15.0489 28C15.5948 28 16.1197 27.9825 16.6341 27.9393C17.4261 27.8728 18.0409 27.3583 18.203 26.6291C18.3593 25.9244 18.0339 25.2255 17.3772 24.8498ZM17.0645 26.3771C17.0249 26.5521 16.8663 26.7493 16.5361 26.7773C16.0532 26.8181 15.5598 26.8333 15.0489 26.8333C10.5931 26.8333 6.37647 24.8323 3.77064 21.4803C1.38994 18.4176 0.607263 14.6513 1.56608 10.8758C3.03579 5.0981 8.64402 1.16385 15.1714 1.16385C15.5995 1.16385 16.0311 1.18019 16.4673 1.21519L16.5128 0.632988L16.5863 1.22452C16.9572 1.25719 17.0447 1.51854 17.061 1.59788C17.0797 1.67722 17.1112 1.95374 16.7928 2.13691C12.6239 4.52756 8.16695 8.89816 8.16695 13.9968C8.16695 19.0955 12.6239 23.4684 16.7963 25.8602C17.1019 26.0352 17.0844 26.2791 17.0634 26.3747L17.0645 26.3771Z" fill="black" fill-opacity="0.7"/>
</svg>
