<svg width="36" height="36" viewBox="0 0 36 36" fill="none" xmlns="http://www.w3.org/2000/svg">
<g clip-path="url(#clip0_3_44)">
<path d="M35.9235 15.8595C35.7435 15.369 35.2725 15.039 34.7505 15.039H30.999L29.667 11.304C29.4885 10.8225 29.019 10.5 28.5 10.5C27.981 10.5 27.5115 10.8255 27.3255 11.3235L26.001 15.039H22.2495C21.726 15.039 21.2565 15.369 21.0765 15.858C20.898 16.3485 21.045 16.905 21.4545 17.25L24.414 19.6575L23.2395 23.4255C23.0805 23.931 23.256 24.4845 23.6805 24.8025C23.8995 24.966 24.1575 25.053 24.4305 25.053C24.6795 25.053 24.9195 24.9795 25.1265 24.8415L28.512 22.575L31.953 24.816C32.3835 25.098 32.979 25.0815 33.4005 24.759C33.8205 24.4365 33.9915 23.88 33.822 23.379L32.5995 19.6515L35.5665 17.235C35.9625 16.9035 36.1065 16.35 35.9265 15.8565L35.9235 15.8595ZM30.8505 19.143L32.1735 23.175L28.4985 20.781L24.861 23.259L26.1465 19.137L22.9545 16.539H27.057L28.4985 12.495L29.94 16.539H34.0455L30.8505 19.143ZM22.3425 31.9515C17.3415 29.0865 11.9985 23.9175 11.9985 18.0015C11.9985 12.0855 17.34 6.91945 22.338 4.05445C23.187 3.56695 23.6055 2.65795 23.4015 1.73845C23.199 0.820454 22.434 0.172454 21.4545 0.0869542C21.4545 0.0869542 21.2925 0.0734542 21.2895 0.0734542C11.481 -0.697546 2.75101 4.99045 0.558013 13.617C-0.791987 18.9285 0.309013 24.228 3.66151 28.5405C7.29451 33.213 13.158 36.0015 19.3485 36.0015C20.0505 36.0015 20.7255 35.979 21.387 35.9235C22.4055 35.838 23.196 35.1765 23.4045 34.239C23.6055 33.333 23.187 32.4345 22.3425 31.9515ZM21.9405 33.915C21.8895 34.14 21.6855 34.3935 21.261 34.4295C20.64 34.482 20.0055 34.5015 19.3485 34.5015C13.6185 34.5015 8.19601 31.929 4.84501 27.6195C1.78351 23.682 0.777013 18.84 2.01001 13.986C3.90001 6.55795 11.112 1.49995 19.506 1.49995C20.0565 1.49995 20.6115 1.52095 21.1725 1.56595L21.231 0.817454L21.3255 1.57795C21.8025 1.61995 21.915 1.95595 21.936 2.05795C21.96 2.15995 22.0005 2.51545 21.591 2.75095C16.23 5.82445 10.4985 11.4435 10.4985 17.9985C10.4985 24.5535 16.23 30.1755 21.5955 33.2505C21.9885 33.4755 21.966 33.789 21.939 33.912L21.9405 33.915Z" fill="white"/>
</g>
<defs>
<clipPath id="clip0_3_44">
<rect width="36" height="36" fill="white"/>
</clipPath>
</defs>
</svg>
